<svg width="317" height="317" viewBox="0 0 317 317" fill="none" xmlns="http://www.w3.org/2000/svg">
<path d="M237.153 237.153C280.811 193.494 280.811 122.71 237.153 79.051C193.494 35.3923 122.71 35.3923 79.051 79.051C35.3923 122.71 35.3923 193.494 79.0509 237.153C122.71 280.812 193.494 280.812 237.153 237.153Z" fill="#9CD4FC"/>
<mask id="mask0_23_6" style="mask-type:luminance" maskUnits="userSpaceOnUse" x="41" y="37" width="229" height="233">
<path d="M254.411 101.308C255.66 83.0299 254.562 64.7349 248.362 51.2369C244.574 42.9889 236.176 37.6599 226.969 37.6589C225.177 37.6589 223.38 37.8619 221.628 38.2629C209.49 41.0409 199.743 46.2939 192.366 51.6609C181.568 48.1879 170.057 46.3049 158.105 46.3049C141.571 46.3049 125.877 49.8979 111.756 56.3399C108.871 53.5269 105.725 50.6679 102.391 47.9609C98.763 45.0159 94.39 43.4589 89.744 43.4589C81.051 43.4589 73.336 48.9629 70.547 57.1539C70.484 57.3379 70.423 57.5239 70.362 57.7119C69.297 61.0049 68.712 64.6619 68.623 68.5799C68.525 72.8839 68.618 80.6229 69.918 89.3869C56.367 106.753 47.837 128.224 46.5 151.623C45.396 153.228 44.432 154.979 43.621 156.876C40.518 164.134 40.186 172.622 42.685 180.774C45.155 188.831 49.439 195.531 54.888 201.112C71.739 241.505 111.604 269.898 158.105 269.898C219.848 269.898 269.901 219.845 269.901 158.102C269.901 137.366 264.249 117.954 254.411 101.308ZM249.851 73.4209C250.412 78.0669 250.728 83.3489 250.702 89.3509C250.694 91.2429 250.648 93.2129 250.569 95.2509C250.648 93.2129 250.694 91.2429 250.702 89.3509C250.728 83.3489 250.412 78.0659 249.851 73.4209C249.57 71.0979 249.229 68.9349 248.838 66.9199C249.228 68.9339 249.57 71.0979 249.851 73.4209ZM226.969 41.8629C227.087 41.8629 227.203 41.8729 227.321 41.8749C226.875 41.8669 226.428 41.8679 225.979 41.8899C226.31 41.8739 226.64 41.8629 226.969 41.8629ZM89.745 47.6629C89.76 47.6629 89.775 47.6649 89.789 47.6649C89.715 47.6649 89.641 47.6689 89.566 47.6699C89.626 47.6689 89.685 47.6629 89.745 47.6629Z" fill="white"/>
</mask>
<g mask="url(#mask0_23_6)">
<path d="M237.673 236.624C217.403 257.164 189.243 269.894 158.103 269.894C137.793 269.894 118.753 264.484 102.333 255.014C103.243 240.694 105.683 219.944 112.243 205.244L216.843 204.064C216.843 204.064 228.513 214.604 237.673 236.624Z" fill="white"/>
<path d="M215.16 208.287C219.186 212.408 226.575 221.92 232.678 235.65C212.539 255.045 186.169 265.69 158.103 265.69C140.108 265.69 122.397 261.188 106.708 252.647C107.676 239.442 109.913 222.349 115.047 209.416L215.16 208.287ZM216.843 204.064L112.243 205.244C105.683 219.944 103.243 240.694 102.333 255.014C118.753 264.484 137.793 269.894 158.103 269.894C189.243 269.894 217.403 257.164 237.673 236.624C228.513 214.604 216.843 204.064 216.843 204.064Z" fill="#582AB1"/>
<path d="M222.75 205.249C222.75 205.249 220.748 207.987 216.648 211.765C216.648 211.777 216.648 211.777 216.636 211.776C207.586 220.071 188.318 233.33 157.628 233.346C155.538 233.353 153.444 233.523 151.425 234.089C145.391 235.752 141.973 239.032 140.26 241.253C139.046 242.821 136.521 242.506 135.789 240.67C135.124 238.974 135.469 237.297 135.469 237.297C125.605 237.588 121.107 242.81 119.183 246.316C118.233 248.052 115.97 248.601 114.366 247.445C106.345 241.733 106.297 232.512 106.297 232.512C101.519 230.321 102.825 223.878 105.268 218.06C107.65 212.404 111.101 207.336 111.101 207.336L162.275 210.932L222.75 205.249Z" fill="#FEEFF5"/>
<path d="M222.75 205.249C222.75 205.249 220.748 207.987 216.648 211.765C216.648 211.777 216.648 211.777 216.636 211.776C206.104 219.219 186.872 228.716 159.078 226.604C156.991 226.449 154.889 226.456 152.838 226.859C146.685 228.056 143.029 231.064 141.143 233.154C139.815 234.627 137.317 234.116 136.737 232.224C136.2 230.496 136.673 228.844 136.673 228.844C126.812 228.38 121.925 233.235 119.749 236.585C118.673 238.248 116.367 238.612 114.847 237.341C107.29 231.033 107.962 221.838 107.962 221.838C106.388 220.961 105.553 219.645 105.269 218.06C107.651 212.404 111.102 207.336 111.102 207.336L162.276 210.932L222.75 205.249Z" fill="white"/>
<path d="M222.753 205.244C222.753 205.244 202.281 233.321 157.631 233.351C155.541 233.352 153.444 233.528 151.428 234.084C145.393 235.748 141.973 239.03 140.257 241.257C139.733 241.938 138.958 242.263 138.19 242.263C137.19 242.263 136.201 241.711 135.789 240.671C135.118 238.978 135.465 237.299 135.465 237.299C125.6 237.59 121.102 242.81 119.186 246.316C118.577 247.431 117.428 248.053 116.257 248.053C115.602 248.053 114.94 247.858 114.361 247.446C106.342 241.734 106.303 232.513 106.303 232.513C96.8671 228.205 111.101 207.334 111.101 207.334L162.28 210.928L222.753 205.244ZM231.644 200.186L222.36 201.059L162.23 206.712L111.395 203.143L108.987 202.974L107.627 204.968C105.807 207.637 96.8521 221.394 99.3041 230.186C99.8441 232.121 100.871 233.731 102.321 234.942C102.885 238.657 104.879 245.855 111.922 250.871C113.196 251.778 114.695 252.258 116.257 252.258C119.016 252.258 121.552 250.754 122.875 248.332C124.206 245.896 126.794 243.048 131.779 241.952C131.811 242.041 131.845 242.13 131.88 242.22C132.902 244.8 135.378 246.467 138.189 246.467C140.324 246.467 142.292 245.503 143.586 243.822C145.022 241.959 147.741 239.46 152.544 238.136C153.959 237.746 155.623 237.556 157.633 237.555C181.735 237.539 199.001 229.523 209.242 222.801C220.452 215.443 225.922 208.033 226.149 207.721L231.644 200.186Z" fill="#582AB1"/>
<path d="M125.251 77.8449C125.251 77.8449 114.136 62.9099 99.7421 51.2249C91.1221 44.2279 78.1061 47.9999 74.5271 58.5089C74.4721 58.6719 74.4171 58.8369 74.3631 59.0029C73.3531 62.1259 72.9011 65.3929 72.8261 68.6739C72.6341 77.1309 73.1681 97.1019 81.3001 112.741L125.251 77.8449Z" fill="white"/>
<path d="M89.745 47.6629C93.221 47.6629 96.748 48.7939 99.742 51.2249C114.136 62.9099 125.251 77.8449 125.251 77.8449L81.299 112.742C73.167 97.1039 72.633 77.1319 72.825 68.6749C72.9 65.3939 73.352 62.1259 74.362 59.0039C74.416 58.8369 74.471 58.6729 74.526 58.5099C76.862 51.6519 83.216 47.6629 89.745 47.6629ZM89.745 43.4589C81.052 43.4589 73.337 48.9629 70.548 57.1539C70.485 57.3389 70.424 57.5239 70.363 57.7119C69.298 61.0049 68.713 64.6619 68.624 68.5789C68.435 76.9029 68.927 98.0579 77.571 114.681L79.923 119.203L83.915 116.033L127.867 81.1359L131.058 78.6019L128.625 75.3339C128.158 74.7069 117.027 59.8399 102.393 47.9599C98.763 45.0159 94.39 43.4589 89.745 43.4589Z" fill="#582AB1"/>
<path d="M105.205 82.5648C98.816 86.2738 92.8289 92.3158 89.1409 96.4378C86.8089 99.0518 85.399 100.896 85.399 100.896C77.861 91.5678 85.627 80.5478 85.627 80.5478C83.382 79.1598 81.8959 77.4888 80.9299 75.7648C77.2529 69.1808 83.848 62.3908 90.269 64.5818C90.952 64.7988 91.636 65.1348 92.297 65.5798C100.259 70.9048 105.205 82.5648 105.205 82.5648Z" fill="#FFBDD3"/>
<path d="M105.205 82.5649C98.8162 86.2739 92.8292 92.3159 89.1412 96.4379C85.9632 88.2269 91.6902 80.0819 91.6902 80.0819C89.4562 78.6829 87.9702 77.0229 87.0042 75.2989C84.5532 70.9059 86.6792 66.4159 90.2692 64.5829C90.9522 64.7999 91.6362 65.1359 92.2972 65.5809C100.259 70.9049 105.205 82.5649 105.205 82.5649Z" fill="#FFA5C3"/>
<path d="M87.7651 64.1629C88.5871 64.1629 89.4291 64.2959 90.2691 64.5819C90.9521 64.7989 91.6361 65.1349 92.2971 65.5799C100.258 70.9059 105.204 82.5659 105.204 82.5659C98.8151 86.2749 92.8281 92.3169 89.1401 96.4389C86.8081 99.0529 85.3981 100.897 85.3981 100.897C77.8601 91.5689 85.6261 80.5489 85.6261 80.5489C83.3811 79.1609 81.8951 77.4899 80.9291 75.7659C77.7341 70.0419 82.3001 64.1629 87.7651 64.1629ZM87.7661 59.9589C83.4861 59.9589 79.4681 62.2759 77.2801 66.0039C75.1261 69.6749 75.1191 73.9789 77.2601 77.8139C78.0471 79.2199 79.0321 80.4969 80.2061 81.6369C77.6391 87.2559 76.0801 96.0529 82.1291 103.538L85.4901 107.697L88.7381 103.45C88.7501 103.434 90.0961 101.682 92.2781 99.2369C95.9321 95.1529 101.512 89.5709 107.315 86.2009L110.523 84.3389L109.075 80.9239C108.853 80.4009 103.537 68.0409 94.6351 62.0859C93.6631 61.4329 92.6351 60.9269 91.5861 60.5899C90.3451 60.1709 89.0601 59.9589 87.7661 59.9589Z" fill="#582AB1"/>
<path d="M178.652 70.9809C178.652 70.9809 193.451 49.0259 222.566 42.3619C231.481 40.3209 240.725 44.6809 244.542 52.9919C250.312 65.5539 254.663 90.2269 245.059 137.668L178.652 70.9809Z" fill="white"/>
<path d="M230.223 123.217L225.461 118.434L204.039 96.9259C204.039 96.9259 212.185 71.9359 222.532 64.8529C223.009 64.5169 223.497 64.2349 223.986 63.9849C228.216 61.8379 233.238 64.2669 234.409 68.8659C235.298 72.3479 235.591 77.6949 231.936 83.3789C231.936 83.3789 246.721 102.24 230.223 123.217Z" fill="#FFBDD3"/>
<path d="M225.462 118.434L204.04 96.9259C204.04 96.9259 212.186 71.9359 222.533 64.8529C224.193 65.8289 225.494 67.4559 226.026 69.5169C226.915 72.9879 227.208 78.3349 223.542 84.0299C223.542 84.0299 235.874 99.7349 225.462 118.434Z" fill="#FFA5C3"/>
<path d="M227.306 63.1459C230.464 63.1459 233.442 65.2959 234.333 68.5619C235.277 72.0219 235.707 77.5239 231.934 83.3789C231.934 83.3789 246.724 102.237 230.223 123.212L204.041 96.9199C204.041 96.9199 213.226 68.7249 224.493 63.7429C225.414 63.3359 226.368 63.1469 227.306 63.1459ZM227.307 58.9429C225.746 58.9429 224.228 59.2649 222.794 59.8989C210.176 65.4779 201.045 92.5499 200.045 95.6189L199.248 98.0649L201.063 99.8879L227.244 126.18L230.593 129.543L233.527 125.813C243.07 113.683 243.06 102.099 241.37 94.5169C240.254 89.5079 238.27 85.5649 236.861 83.2119C239.931 77.0299 239.446 71.3309 238.389 67.4569C237.021 62.4429 232.464 58.9429 227.307 58.9429Z" fill="#582AB1"/>
<path d="M64.142 144.595C64.142 144.595 67.374 132.325 75.437 117.355C103.372 65.4919 172.747 53.2589 215.52 93.7629C227.561 105.166 238.377 120.85 244.651 142.386C252.31 168.678 240.35 196.92 215.913 209.279C200.377 217.137 177.798 223.398 145.022 224.46C145.022 224.46 61.241 226.972 46.703 179.541C44.586 172.633 44.646 165.171 47.486 158.527C49.942 152.783 54.748 146.767 64.142 144.595Z" fill="white"/>
<path d="M120.379 143.422C123.106 127.759 130.396 107.39 149.588 98.0239C169.842 88.1399 194.626 95.8939 204.521 116.143C204.772 116.658 205.018 117.184 205.258 117.721C213.269 135.695 206.522 156.799 189.154 166.05C178.055 171.962 161.678 175.269 137.927 169.844C125.953 167.109 118.272 155.522 120.379 143.422Z" fill="#F25691"/>
<path d="M204.583 130.634C208.28 142.394 203.999 155.333 194.199 162.811C192.633 164.006 190.949 165.09 189.151 166.048C178.052 171.968 161.673 175.274 137.929 169.844C137.868 169.83 137.808 169.816 137.747 169.801C128.609 167.625 122.934 158.381 124.841 149.183C127.346 137.104 135.441 118.193 161.346 110.476C171.942 107.321 183.544 108.716 192.695 114.938C197.68 118.32 202.279 123.304 204.583 130.634Z" fill="#582AB1"/>
<path d="M157.404 167.5C168.277 167.5 177.092 157.586 177.092 145.356C177.092 133.126 168.277 123.212 157.404 123.212C146.531 123.212 137.716 133.126 137.716 145.356C137.716 157.586 146.531 167.5 157.404 167.5Z" fill="#F7C560"/>
<path d="M168.303 143.016C166.822 150.469 159.515 155.484 151.982 154.217C144.449 152.95 139.543 145.882 141.024 138.429C142.505 130.976 149.812 125.961 157.345 127.228C164.877 128.494 169.783 135.563 168.303 143.016Z" fill="#FBCF78"/>
<path d="M77.3081 131.883C77.3081 131.883 81.4121 109.746 91.8201 101.665C91.8201 101.665 93.2901 100.403 95.6861 99.4779C103.314 96.5329 110.418 104.398 106.797 111.729C103.826 117.742 96.0951 125.262 77.3081 131.883Z" fill="#F25691"/>
<path d="M89.1082 135.475C89.1082 135.475 98.2411 123.459 107.458 122.123C112.772 121.353 116.892 127.072 114.433 131.844C112.179 136.216 105.898 140.045 89.1082 135.475Z" fill="#582AB1"/>
<path d="M226.969 41.8629C234.377 41.8629 241.353 46.0489 244.542 52.9919C250.312 65.5539 254.663 90.2269 245.059 137.668L242.149 134.745C243.046 137.208 243.884 139.752 244.652 142.387C252.311 168.679 240.351 196.921 215.914 209.28C200.378 217.138 177.799 223.399 145.023 224.461C145.023 224.461 144.255 224.484 142.851 224.484C129.604 224.484 59.849 222.428 46.704 179.542C44.587 172.634 44.647 165.172 47.487 158.528C49.943 152.783 54.748 146.767 64.143 144.595C64.143 144.595 67.375 132.325 75.438 117.355C92.077 86.4629 123.415 69.6359 155.08 69.6369C163.883 69.6369 172.715 70.9379 181.259 73.5989L178.651 70.9799C178.651 70.9799 193.45 49.0249 222.565 42.3609C224.033 42.0259 225.509 41.8629 226.969 41.8629ZM226.969 37.6589C225.177 37.6589 223.38 37.8619 221.628 38.2629C194.216 44.5379 178.971 63.4319 175.779 67.7679C169.022 66.2169 162.087 65.4329 155.08 65.4329C120.261 65.4309 88.325 84.5629 71.736 115.361C65.528 126.887 62.118 136.795 60.767 141.161C52.863 143.662 46.964 149.053 43.621 156.875C40.518 164.133 40.186 172.62 42.685 180.773C56.664 226.377 128.578 228.687 142.852 228.687C144.303 228.687 145.116 228.663 145.15 228.662C174.757 227.703 199.2 222.444 217.812 213.031C243.972 199.8 256.958 169.595 248.689 141.211C248.678 141.173 248.667 141.135 248.656 141.096L249.181 138.501C254.66 111.433 258.967 74.3199 248.363 51.2359C244.574 42.9889 236.176 37.6599 226.969 37.6589Z" fill="#582AB1"/>
<path d="M57.217 152.515C61.206 150.417 67.053 148.834 75.555 149.133C82.098 149.363 87.172 155.269 86.109 161.729C85.505 165.399 83.485 169.525 78.672 173.497C72.025 178.983 62.442 179.736 55.549 174.562C54.954 174.115 54.378 173.625 53.831 173.087C47.662 167.013 49.555 156.545 57.217 152.515Z" fill="#582AB1"/>
<path d="M74.4999 156.615C76.4099 161.24 73.0119 167.032 66.9089 169.553C60.8059 172.074 54.3109 170.368 52.3999 165.743C50.4899 161.118 53.8879 155.326 59.9909 152.805C66.0939 150.285 72.5899 151.99 74.4999 156.615Z" fill="#6737C4"/>
<path d="M64.1421 144.595C64.1421 144.595 85.0221 139.413 101.831 150.695C101.831 150.695 90.3871 134.948 64.4151 140.5L64.1421 144.595Z" fill="#582AB1"/>
<path d="M231.579 197.537C227.186 202.234 221.925 206.236 215.917 209.284C200.407 217.115 177.9 223.373 145.231 224.447C145.253 198.296 166.458 177.113 192.608 177.113C208.758 177.113 223.021 185.194 231.579 197.537Z" fill="#FFA5C3"/>
<path d="M212.717 191.799C213.967 200.267 205.003 208.604 192.696 210.421C180.389 212.238 169.398 206.846 168.148 198.379C166.898 189.911 175.862 181.574 188.169 179.757C200.476 177.94 211.467 183.332 212.717 191.799Z" fill="#FFB5CE"/>
<path d="M243.712 139.314C243.712 139.314 232.492 101.422 199.381 81.6078C199.381 81.6078 233.789 90.8119 247.801 139.314H243.712Z" fill="#582AB1"/>
<path d="M175.928 72.1239C175.928 72.1239 182.906 73.7619 187.898 75.9599C187.898 75.9599 183.787 71.0569 177.69 68.6549L175.928 72.1239Z" fill="#582AB1"/>
</g>
</svg>
