<svg width="193" height="54" viewBox="0 0 193 54" fill="none" xmlns="http://www.w3.org/2000/svg">
<path d="M3.96307 43V10.2727H7.92614V26.5085H8.30966L23.0114 10.2727H28.1889L14.446 25.0384L28.1889 43H23.3949L12.017 27.7869L7.92614 32.3892V43H3.96307ZM37.2816 10.2727V43H33.3185V10.2727H37.2816ZM43.4379 13.7884V10.2727H67.9834V13.7884H57.6922V43H53.7291V13.7884H43.4379ZM91.9975 18.4545C91.8058 16.8352 91.0281 15.5781 89.6644 14.6832C88.3008 13.7884 86.6282 13.3409 84.6467 13.3409C83.1978 13.3409 81.93 13.5753 80.8434 14.044C79.7674 14.5128 78.9258 15.1573 78.3185 15.9776C77.7219 16.7979 77.4237 17.7301 77.4237 18.7741C77.4237 19.6477 77.6314 20.3988 78.0469 21.0273C78.473 21.6452 79.0163 22.1619 79.6768 22.5774C80.3374 22.9822 81.0298 23.3178 81.7543 23.5842C82.4787 23.8398 83.1445 24.0476 83.7518 24.2074L87.0756 25.1023C87.9279 25.326 88.8761 25.6349 89.9201 26.0291C90.9748 26.4233 91.9815 26.9613 92.9403 27.6431C93.9098 28.3143 94.7088 29.1772 95.3374 30.2319C95.9659 31.2866 96.2802 32.581 96.2802 34.1151C96.2802 35.8835 95.8168 37.4815 94.8899 38.9091C93.9737 40.3366 92.6314 41.4712 90.8629 42.3129C89.1051 43.1545 86.9691 43.5753 84.4549 43.5753C82.1112 43.5753 80.0817 43.1971 78.3665 42.4407C76.6619 41.6843 75.3196 40.6296 74.3395 39.2766C73.37 37.9237 72.8214 36.3523 72.6935 34.5625H76.7844C76.891 35.7983 77.3065 36.821 78.0309 37.6307C78.766 38.4297 79.6928 39.0263 80.8114 39.4205C81.9407 39.804 83.1552 39.9957 84.4549 39.9957C85.9677 39.9957 87.326 39.7507 88.5298 39.2607C89.7337 38.7599 90.6871 38.0675 91.3903 37.1832C92.0934 36.2884 92.445 35.2443 92.445 34.0511C92.445 32.9645 92.1413 32.0803 91.5341 31.3984C90.9268 30.7166 90.1278 30.1626 89.1371 29.7365C88.1463 29.3104 87.0756 28.9375 85.9251 28.6179L81.8981 27.4673C79.3413 26.7322 77.3171 25.6829 75.8256 24.3192C74.3342 22.9556 73.5884 21.1712 73.5884 18.9659C73.5884 17.1335 74.0838 15.5355 75.0746 14.1719C76.076 12.7976 77.4183 11.7322 79.1016 10.9759C80.7955 10.2088 82.6864 9.82528 84.7745 9.82528C86.8839 9.82528 88.7589 10.2035 90.3995 10.9599C92.0401 11.7056 93.3398 12.7283 94.2987 14.0281C95.2681 15.3278 95.7795 16.8033 95.8327 18.4545H91.9975ZM124.273 10.2727H128.236V31.9418C128.236 34.179 127.709 36.1765 126.654 37.9343C125.61 39.6815 124.135 41.0611 122.228 42.0732C120.321 43.0746 118.084 43.5753 115.516 43.5753C112.949 43.5753 110.712 43.0746 108.805 42.0732C106.898 41.0611 105.417 39.6815 104.362 37.9343C103.318 36.1765 102.796 34.179 102.796 31.9418V10.2727H106.759V31.6222C106.759 33.2202 107.111 34.6424 107.814 35.8888C108.517 37.1246 109.518 38.0994 110.818 38.8132C112.128 39.5163 113.695 39.8679 115.516 39.8679C117.338 39.8679 118.904 39.5163 120.214 38.8132C121.525 38.0994 122.526 37.1246 123.219 35.8888C123.922 34.6424 124.273 33.2202 124.273 31.6222V10.2727ZM162.102 10.2727V43H158.267L140.433 17.304H140.114V43H136.151V10.2727H139.986L157.884 36.0327H158.203V10.2727H162.102ZM170.032 43V10.2727H189.784V13.7884H173.995V24.8466H188.761V28.3622H173.995V39.4844H190.04V43H170.032Z" fill="#582AB1"/>
</svg>
